<svg xmlns="http://www.w3.org/2000/svg" width="160" height="48" viewBox="0 0 160 48" fill="none">
  <path d="M88.657 28.357C80.457 34.557 68.257 37.857 57.857 37.857C43.057 37.857 29.857 32.657 19.857 23.857C19.057 23.157 19.657 22.157 20.657 22.657C31.457 28.657 44.657 32.157 58.457 32.157C67.857 32.157 78.257 30.157 87.857 26.157C89.257 25.557 90.457 27.157 88.657 28.357Z" fill="#FF9900"/>
  <path d="M92.057 24.357C91.057 23.057 84.657 23.857 81.857 24.157C80.857 24.257 80.657 23.357 81.557 22.757C86.657 19.357 95.057 20.357 95.857 21.357C96.657 22.457 95.657 31.357 90.857 35.157C90.057 35.857 89.257 35.457 89.657 34.557C90.857 31.857 93.057 25.657 92.057 24.357Z" fill="#FF9900"/>
  <path d="M82.257 12.157V9.357C82.257 8.957 82.557 8.657 82.857 8.657H97.057C97.457 8.657 97.757 8.957 97.757 9.357V11.757C97.757 12.157 97.457 12.657 96.857 13.557L89.257 24.357C92.057 24.257 95.057 24.657 97.657 26.157C98.157 26.457 98.357 26.857 98.357 27.257V30.157C98.357 30.557 97.957 31.057 97.457 30.857C93.057 28.657 87.257 28.357 82.457 30.857C82.057 31.057 81.557 30.657 81.557 30.157V27.457C81.557 26.957 81.557 26.157 82.057 25.457L90.857 12.957H82.957C82.557 12.957 82.257 12.657 82.257 12.157Z" fill="white"/>
  <path d="M29.457 31.157H25.057C24.657 31.057 24.357 30.757 24.357 30.457V9.457C24.357 9.057 24.657 8.757 25.057 8.757H29.157C29.557 8.857 29.857 9.157 29.857 9.457V12.057H29.957C30.957 9.157 32.957 7.857 35.657 7.857C38.457 7.857 40.057 9.157 41.257 12.057C42.257 9.157 44.657 7.857 47.257 7.857C49.057 7.857 51.057 8.657 52.257 10.457C53.657 12.457 53.257 15.357 53.257 17.857L53.257 30.357C53.257 30.757 52.957 31.057 52.557 31.057H48.157C47.757 31.057 47.457 30.757 47.457 30.357V19.857C47.457 18.857 47.557 16.357 47.357 15.357C47.057 13.857 46.157 13.357 44.857 13.357C43.857 13.357 42.757 14.057 42.257 15.157C41.757 16.257 41.757 18.157 41.757 19.857V30.357C41.757 30.757 41.457 31.057 41.057 31.057H36.657C36.257 31.057 35.957 30.757 35.957 30.357V19.857C35.957 17.357 36.357 13.257 33.157 13.257C29.957 13.257 30.057 17.257 30.057 19.857V30.357C30.057 30.757 29.757 31.057 29.457 31.157Z" fill="white"/>
  <path d="M109.657 8.057C116.457 8.057 120.057 13.857 120.057 21.357C120.057 28.557 116.057 34.157 109.657 34.157C102.957 34.157 99.457 28.357 99.457 20.957C99.457 13.557 103.057 8.057 109.657 8.057ZM109.757 12.657C106.357 12.657 106.157 17.357 106.157 20.457C106.157 23.557 106.057 29.457 109.657 29.457C113.157 29.457 113.357 24.657 113.357 21.357C113.357 19.357 113.257 16.957 112.657 15.057C112.157 13.457 111.057 12.657 109.757 12.657Z" fill="white"/>
  <path d="M130.057 31.157H125.657C125.257 31.157 124.957 30.857 124.957 30.457V9.357C125.057 9.057 125.357 8.757 125.757 8.757H129.857C130.157 8.757 130.457 9.057 130.557 9.357V12.357H130.657C131.857 9.357 133.657 7.857 136.857 7.857C138.857 7.857 140.857 8.657 142.057 10.657C143.157 12.457 143.157 15.457 143.157 17.657V30.557C143.057 30.857 142.757 31.157 142.357 31.157H137.957C137.657 31.157 137.357 30.857 137.257 30.557V19.457C137.257 16.957 137.557 13.157 134.457 13.157C133.457 13.157 132.557 13.857 132.057 14.957C131.357 16.357 131.257 17.757 131.257 19.457V30.457C131.157 30.857 130.857 31.157 130.057 31.157Z" fill="white"/>
  <path d="M151.057 8.057C153.057 8.057 155.057 8.357 156.957 9.157C157.457 9.357 157.657 9.757 157.657 10.157V13.857C157.657 14.257 157.257 14.657 156.857 14.457C155.057 13.457 153.057 12.957 151.057 12.957C149.057 12.957 146.857 13.957 146.857 16.257C146.857 18.257 148.657 19.157 150.657 20.357L153.057 21.757C156.057 23.557 158.257 25.657 158.257 29.457C158.257 34.457 154.257 37.857 149.457 37.857C147.257 37.857 144.957 37.357 142.957 36.157C142.557 35.957 142.357 35.557 142.357 35.157V31.357C142.357 30.957 142.757 30.557 143.157 30.757C145.457 32.157 148.057 32.857 150.557 32.857C152.757 32.857 155.057 31.857 155.057 29.257C155.057 27.057 153.257 25.957 151.257 24.757L148.657 23.257C145.857 21.557 143.757 19.557 143.757 15.857C143.757 11.157 147.457 8.057 151.057 8.057Z" fill="white"/>
  <path d="M75.057 25.357C75.057 26.957 75.157 28.257 74.357 29.657C73.757 30.757 72.857 31.557 71.857 32.357C69.857 33.857 67.157 34.357 64.857 34.357C61.457 34.357 57.457 33.157 57.457 29.157C57.457 26.157 59.457 24.157 62.057 23.157C64.857 22.057 68.457 21.957 71.457 21.657V20.957C71.457 19.957 71.557 18.757 70.957 17.857C70.457 17.057 69.457 16.757 68.557 16.757C66.857 16.757 65.357 17.657 65.057 19.457C64.957 19.857 64.657 20.257 64.257 20.257L60.057 19.857C59.657 19.757 59.257 19.457 59.357 18.957C60.257 14.157 64.557 12.457 68.457 12.457C70.457 12.457 73.057 12.957 74.657 14.457C76.657 16.357 76.457 18.957 76.457 21.757V27.157C76.457 28.957 77.157 29.757 77.857 30.757C78.157 31.157 78.257 31.657 77.857 31.957C76.857 32.757 75.257 34.257 74.257 35.057L74.257 35.057C73.857 35.357 73.357 35.357 73.057 35.057L71.457 33.157C70.057 34.157 68.357 34.957 66.457 35.057C63.457 35.057 61.057 33.357 61.057 30.157C61.057 27.057 63.057 25.157 65.657 24.257C68.457 23.257 72.057 23.157 75.057 22.857V25.357ZM71.357 25.357C71.357 26.857 71.457 28.157 70.657 29.457C70.057 30.457 69.057 31.057 67.957 31.057C65.857 31.057 64.657 29.357 64.657 27.257C64.657 23.157 68.457 22.357 71.357 22.357V25.357Z" fill="white"/>
  <path d="M13.057 25.357C13.057 26.957 13.157 28.257 12.357 29.657C11.757 30.757 10.857 31.557 9.857 32.357C7.857 33.857 5.157 34.357 2.857 34.357C-0.543 34.357 -4.543 33.157 -4.543 29.157C-4.543 26.157 -2.543 24.157 0.057 23.157C2.857 22.057 6.457 21.957 9.457 21.657V20.957C9.457 19.957 9.557 18.757 8.957 17.857C8.457 17.057 7.457 16.757 6.557 16.757C4.857 16.757 3.357 17.657 3.057 19.457C2.957 19.857 2.657 20.257 2.257 20.257L-1.943 19.857C-2.343 19.757 -2.743 19.457 -2.643 18.957C-1.743 14.157 2.557 12.457 6.457 12.457C8.457 12.457 11.057 12.957 12.657 14.457C14.657 16.357 14.457 18.957 14.457 21.757V27.157C14.457 28.957 15.157 29.757 15.857 30.757C16.157 31.157 16.257 31.657 15.857 31.957C14.857 32.757 13.257 34.257 12.257 35.057L12.257 35.057C11.857 35.357 11.357 35.357 11.057 35.057L9.457 33.157C8.057 34.157 6.357 34.957 4.457 35.057C1.457 35.057 -0.943 33.357 -0.943 30.157C-0.943 27.057 1.057 25.157 3.657 24.257C6.457 23.257 10.057 23.157 13.057 22.857V25.357ZM9.357 25.357C9.357 26.857 9.457 28.157 8.657 29.457C8.057 30.457 7.057 31.057 5.957 31.057C3.857 31.057 2.657 29.357 2.657 27.257C2.657 23.157 6.457 22.357 9.357 22.357V25.357Z" fill="white"/>
</svg>